<svg width="600" height="400" viewBox="0 0 600 400" fill="none" xmlns="http://www.w3.org/2000/svg">
  <rect width="600" height="400" rx="8" fill="#142634"/>
  <path d="M300 350C405.46 350 490 265.46 490 160C490 54.5431 405.46 -30 300 -30C194.54 -30 110 54.5431 110 160C110 265.46 194.54 350 300 350Z" fill="#1F3243"/>
  
  <!-- Casino dice, cards and chips background elements -->
  <rect x="190" y="80" width="60" height="60" rx="10" fill="#E74C3C" opacity="0.6"/>
  <rect x="350" y="100" width="60" height="60" rx="10" fill="#3498DB" opacity="0.6"/>
  <rect x="150" y="220" width="60" height="60" rx="10" fill="#2ECC71" opacity="0.6"/>
  <rect x="390" y="240" width="60" height="60" rx="10" fill="#F39C12" opacity="0.6"/>
  
  <!-- Playing card symbols -->
  <path d="M220 110C220 117.732 213.732 124 206 124C198.268 124 192 117.732 192 110C192 102.268 198.268 96 206 96C213.732 96 220 102.268 220 110Z" fill="white" opacity="0.8"/>
  <path d="M408 130C408 137.732 401.732 144 394 144C386.268 144 380 137.732 380 130C380 122.268 386.268 116 394 116C401.732 116 408 122.268 408 130Z" fill="white" opacity="0.8"/>
  
  <!-- Casino chips -->
  <circle cx="180" cy="250" r="25" stroke="white" stroke-width="2" fill="#2ECC71" opacity="0.8"/>
  <circle cx="420" cy="270" r="25" stroke="white" stroke-width="2" fill="#F39C12" opacity="0.8"/>
  
  <!-- Silhouette of casino dealer -->
  <path d="M320 250C360 250 390 200 390 180C390 160 370 140 320 140C270 140 250 160 250 180C250 200 280 250 320 250Z" fill="#0A1823"/>
  <path d="M320 140C340 140 350 110 350 100C350 90 335 80 320 80C305 80 290 90 290 100C290 110 300 140 320 140Z" fill="#0A1823"/>
  
  <!-- Casino table edge -->
  <rect x="150" y="300" width="300" height="30" rx="5" fill="#0F1B27"/>
  
  <!-- Text overlay -->
  <text x="300" y="335" font-family="Arial" font-size="18" fill="white" text-anchor="middle">HIGH STAKES CASINO</text>
  
  <!-- Decorative elements -->
  <circle cx="200" cy="180" r="5" fill="#3498DB" opacity="0.8"/>
  <circle cx="400" cy="180" r="5" fill="#3498DB" opacity="0.8"/>
  <circle cx="240" cy="220" r="4" fill="#E74C3C" opacity="0.8"/>
  <circle cx="360" cy="220" r="4" fill="#E74C3C" opacity="0.8"/>
</svg>