<?xml version="1.0" encoding="UTF-8"?>
<svg xmlns="http://www.w3.org/2000/svg" viewBox="0 0 512 512" width="512" height="512">
  <!-- Rocket Body -->
  <path d="M256 46c-12 0-96 64-96 196v30c0 8.3 1.6 16.4 4.6 24H160c-8.8 0-16 7.2-16 16v16c0 8.8 7.2 16 16 16h192c8.8 0 16-7.2 16-16v-16c0-8.8-7.2-16-16-16h-4.6c3-7.6 4.6-15.7 4.6-24v-30c0-132-84-196-96-196z" fill="#f5f5f5"/>

  <!-- Rocket Nose -->
  <path d="M256 78c-10 0-20 20-20 50v114h40V128c0-30-10-50-20-50z" fill="#FF3D00"/>

  <!-- Windows -->
  <circle cx="256" cy="160" r="16" fill="#29B6F6"/>
  <circle cx="256" cy="208" r="16" fill="#29B6F6"/>

  <!-- Flames -->
  <g>
    <path d="M208 338c0 16 16 32 48 32s48-16 48-32l-8-16h-80l-8 16z" fill="#FF9800"/>
    <path d="M232 354c0 12 8 16 24 16s24-4 24-16l-6-16h-36l-6 16z" fill="#FFC107"/>
    <path d="M248 370c0 8 2 24 8 24s8-16 8-24l-2-8h-12l-2 8z" fill="#FFEB3B"/>
  </g>

  <!-- Fins -->
  <path d="M160 248c-16 0-32 16-32 32h32v-32z" fill="#455A64"/>
  <path d="M352 248c16 0 32 16 32 32h-32v-32z" fill="#455A64"/>

  <!-- Stars -->
  <g fill="#FFC107">
    <circle cx="128" cy="120" r="8"/>
    <circle cx="384" cy="160" r="8"/>
    <circle cx="96" cy="224" r="8"/>
    <circle cx="416" cy="224" r="8"/>
    <circle cx="176" cy="64" r="8"/>
    <circle cx="336" cy="96" r="8"/>
  </g>

  <!-- Rocket Trail -->
  <path d="M208 364c0 0 0 48 16 64 8 8 16 16 32 16s24-8 32-16c16-16 16-64 16-64" fill="none" stroke="#FF9800" stroke-width="8" stroke-linecap="round" stroke-dasharray="8,8"/>
</svg>