<?xml version="1.0" encoding="UTF-8" standalone="no"?>
<svg width="800" height="180" xmlns="http://www.w3.org/2000/svg">
  <g>
    <!-- Mid Building 1 -->
    <rect x="30" y="30" width="100" height="150" fill="#667788" />
    <rect x="40" y="40" width="80" height="140" fill="#778899" />
    <!-- Windows -->
    <g fill="#AADDFF">
      <rect x="50" y="50" width="10" height="10" />
      <rect x="70" y="50" width="10" height="10" />
      <rect x="90" y="50" width="10" height="10" />
      <rect x="50" y="70" width="10" height="10" />
      <rect x="70" y="70" width="10" height="10" />
      <rect x="90" y="70" width="10" height="10" />
      <rect x="50" y="90" width="10" height="10" />
      <rect x="70" y="90" width="10" height="10" />
      <rect x="90" y="90" width="10" height="10" />
      <rect x="50" y="110" width="10" height="10" />
      <rect x="70" y="110" width="10" height="10" />
      <rect x="90" y="110" width="10" height="10" />
      <rect x="50" y="130" width="10" height="10" />
      <rect x="70" y="130" width="10" height="10" />
      <rect x="90" y="130" width="10" height="10" />
      <rect x="50" y="150" width="10" height="10" />
      <rect x="70" y="150" width="10" height="10" />
      <rect x="90" y="150" width="10" height="10" />
    </g>
    
    <!-- Mid Building 2 -->
    <rect x="160" y="40" width="120" height="140" fill="#6688AA" />
    <!-- Windows -->
    <g fill="#AADDFF">
      <rect x="175" y="50" width="15" height="15" />
      <rect x="200" y="50" width="15" height="15" />
      <rect x="225" y="50" width="15" height="15" />
      <rect x="250" y="50" width="15" height="15" />
      <rect x="175" y="75" width="15" height="15" />
      <rect x="200" y="75" width="15" height="15" />
      <rect x="225" y="75" width="15" height="15" />
      <rect x="250" y="75" width="15" height="15" />
      <rect x="175" y="100" width="15" height="15" />
      <rect x="200" y="100" width="15" height="15" />
      <rect x="225" y="100" width="15" height="15" />
      <rect x="250" y="100" width="15" height="15" />
      <rect x="175" y="125" width="15" height="15" />
      <rect x="200" y="125" width="15" height="15" />
      <rect x="225" y="125" width="15" height="15" />
      <rect x="250" y="125" width="15" height="15" />
      <rect x="175" y="150" width="15" height="15" />
      <rect x="200" y="150" width="15" height="15" />
      <rect x="225" y="150" width="15" height="15" />
      <rect x="250" y="150" width="15" height="15" />
    </g>
    
    <!-- Mid Building 3 with rooftop banner -->
    <rect x="310" y="50" width="80" height="130" fill="#5577AA" />
    <rect x="320" y="25" width="60" height="25" fill="#6688AA" />
    <!-- Banner -->
    <rect x="325" y="30" width="50" height="15" fill="#FFDD44" />
    <text x="335" y="42" font-family="Arial" font-size="10" fill="#333">CASINO</text>
    <!-- Windows -->
    <g fill="#AADDFF">
      <rect x="325" y="60" width="12" height="12" />
      <rect x="345" y="60" width="12" height="12" />
      <rect x="365" y="60" width="12" height="12" />
      <rect x="325" y="80" width="12" height="12" />
      <rect x="345" y="80" width="12" height="12" />
      <rect x="365" y="80" width="12" height="12" />
      <rect x="325" y="100" width="12" height="12" />
      <rect x="345" y="100" width="12" height="12" />
      <rect x="365" y="100" width="12" height="12" />
      <rect x="325" y="120" width="12" height="12" />
      <rect x="345" y="120" width="12" height="12" />
      <rect x="365" y="120" width="12" height="12" />
      <rect x="325" y="140" width="12" height="12" />
      <rect x="345" y="140" width="12" height="12" />
      <rect x="365" y="140" width="12" height="12" />
      <rect x="325" y="160" width="12" height="12" />
      <rect x="345" y="160" width="12" height="12" />
      <rect x="365" y="160" width="12" height="12" />
    </g>
    
    <!-- Mid Building 4 -->
    <rect x="420" y="60" width="90" height="120" fill="#8899AA" />
    <!-- Windows -->
    <g fill="#AADDFF">
      <rect x="430" y="70" width="15" height="15" />
      <rect x="455" y="70" width="15" height="15" />
      <rect x="480" y="70" width="15" height="15" />
      <rect x="430" y="95" width="15" height="15" />
      <rect x="455" y="95" width="15" height="15" />
      <rect x="480" y="95" width="15" height="15" />
      <rect x="430" y="120" width="15" height="15" />
      <rect x="455" y="120" width="15" height="15" />
      <rect x="480" y="120" width="15" height="15" />
      <rect x="430" y="145" width="15" height="15" />
      <rect x="455" y="145" width="15" height="15" />
      <rect x="480" y="145" width="15" height="15" />
    </g>
    
    <!-- Mid Building 5 -->
    <rect x="540" y="30" width="70" height="150" fill="#7788AA" />
    <!-- Windows with animations -->
    <g fill="#AADDFF">
      <rect x="550" y="40" width="10" height="10">
        <animate attributeName="fill" values="#AADDFF;#FFDD44;#AADDFF" dur="5s" repeatCount="indefinite" />
      </rect>
      <rect x="570" y="40" width="10" height="10" />
      <rect x="590" y="40" width="10" height="10">
        <animate attributeName="fill" values="#AADDFF;#FFDD44;#AADDFF" dur="7s" repeatCount="indefinite" />
      </rect>
      <rect x="550" y="60" width="10" height="10" />
      <rect x="570" y="60" width="10" height="10">
        <animate attributeName="fill" values="#AADDFF;#FFDD44;#AADDFF" dur="4s" repeatCount="indefinite" />
      </rect>
      <rect x="590" y="60" width="10" height="10" />
      <rect x="550" y="80" width="10" height="10">
        <animate attributeName="fill" values="#AADDFF;#FFDD44;#AADDFF" dur="6s" repeatCount="indefinite" />
      </rect>
      <rect x="570" y="80" width="10" height="10" />
      <rect x="590" y="80" width="10" height="10" />
      <rect x="550" y="100" width="10" height="10" />
      <rect x="570" y="100" width="10" height="10">
        <animate attributeName="fill" values="#AADDFF;#FFDD44;#AADDFF" dur="5s" repeatCount="indefinite" />
      </rect>
      <rect x="590" y="100" width="10" height="10" />
      <rect x="550" y="120" width="10" height="10" />
      <rect x="570" y="120" width="10" height="10" />
      <rect x="590" y="120" width="10" height="10">
        <animate attributeName="fill" values="#AADDFF;#FFDD44;#AADDFF" dur="8s" repeatCount="indefinite" />
      </rect>
      <rect x="550" y="140" width="10" height="10">
        <animate attributeName="fill" values="#AADDFF;#FFDD44;#AADDFF" dur="6s" repeatCount="indefinite" />
      </rect>
      <rect x="570" y="140" width="10" height="10" />
      <rect x="590" y="140" width="10" height="10" />
      <rect x="550" y="160" width="10" height="10" />
      <rect x="570" y="160" width="10" height="10">
        <animate attributeName="fill" values="#AADDFF;#FFDD44;#AADDFF" dur="7s" repeatCount="indefinite" />
      </rect>
      <rect x="590" y="160" width="10" height="10" />
    </g>
    
    <!-- Mid Building 6 -->
    <rect x="640" y="40" width="130" height="140" fill="#6677AA" />
    <!-- Windows -->
    <g fill="#AADDFF">
      <rect x="650" y="50" width="20" height="15" />
      <rect x="680" y="50" width="20" height="15" />
      <rect x="710" y="50" width="20" height="15" />
      <rect x="740" y="50" width="20" height="15" />
      <rect x="650" y="75" width="20" height="15" />
      <rect x="680" y="75" width="20" height="15" />
      <rect x="710" y="75" width="20" height="15" />
      <rect x="740" y="75" width="20" height="15" />
      <rect x="650" y="100" width="20" height="15" />
      <rect x="680" y="100" width="20" height="15" />
      <rect x="710" y="100" width="20" height="15" />
      <rect x="740" y="100" width="20" height="15" />
      <rect x="650" y="125" width="20" height="15" />
      <rect x="680" y="125" width="20" height="15" />
      <rect x="710" y="125" width="20" height="15" />
      <rect x="740" y="125" width="20" height="15" />
      <rect x="650" y="150" width="20" height="15" />
      <rect x="680" y="150" width="20" height="15" />
      <rect x="710" y="150" width="20" height="15" />
      <rect x="740" y="150" width="20" height="15" />
    </g>
  </g>
</svg>