<?xml version="1.0" encoding="UTF-8" standalone="no"?>
<svg width="120" height="60" xmlns="http://www.w3.org/2000/svg">
  <g>
    <!-- Car body -->
    <rect x="20" y="30" width="80" height="20" fill="#FF8C00" rx="5" ry="5" stroke="#333" stroke-width="2"/>
    <rect x="40" y="10" width="40" height="20" fill="#FF8C00" rx="5" ry="5" stroke="#333" stroke-width="2"/>
    <!-- Car windows -->
    <rect x="45" y="13" width="30" height="14" fill="#88CCFF" rx="2" ry="2" stroke="#333" stroke-width="1"/>
    <!-- Side windows -->
    <rect x="25" y="20" width="15" height="10" fill="#88CCFF" rx="2" ry="2" stroke="#333" stroke-width="1"/>
    <rect x="80" y="20" width="15" height="10" fill="#88CCFF" rx="2" ry="2" stroke="#333" stroke-width="1"/>
    <!-- Door outline -->
    <line x1="55" y1="30" x2="55" y2="50" stroke="#333" stroke-width="1"/>
    <!-- Door handle -->
    <rect x="60" y="36" width="5" height="2" fill="#333" rx="1" ry="1"/>
    <!-- Wheels -->
    <circle cx="35" cy="50" r="8" fill="#333" stroke="#222" stroke-width="1"/>
    <circle cx="85" cy="50" r="8" fill="#333" stroke="#222" stroke-width="1"/>
    <!-- Wheel details -->
    <circle cx="35" cy="50" r="4" fill="#555" stroke="#777" stroke-width="1"/>
    <circle cx="85" cy="50" r="4" fill="#555" stroke="#777" stroke-width="1"/>
    <!-- Headlights -->
    <rect x="95" y="32" width="5" height="6" fill="#FFF" rx="2" ry="2" stroke="#333" stroke-width="1"/>
    <!-- Taillights -->
    <rect x="20" y="32" width="4" height="6" fill="#FF3300" rx="2" ry="2" stroke="#333" stroke-width="1"/>
  </g>
</svg>