<?xml version="1.0" encoding="UTF-8" standalone="no"?>
<svg width="200" height="100" xmlns="http://www.w3.org/2000/svg">
  <g>
    <!-- Car body -->
    <rect x="40" y="30" width="120" height="30" fill="#FF5500" rx="8" ry="8" stroke="#333" stroke-width="2"/>
    <rect x="70" y="10" width="60" height="20" fill="#FF5500" rx="6" ry="6" stroke="#333" stroke-width="2"/>
    
    <!-- Car windows -->
    <rect x="75" y="13" width="50" height="14" fill="#88CCFF" rx="3" ry="3" stroke="#333" stroke-width="1"/>
    
    <!-- Side windows -->
    <rect x="45" y="18" width="20" height="12" fill="#88CCFF" rx="2" ry="2" stroke="#333" stroke-width="1"/>
    <rect x="135" y="18" width="20" height="12" fill="#88CCFF" rx="2" ry="2" stroke="#333" stroke-width="1"/>
    
    <!-- Door outline -->
    <line x1="90" y1="30" x2="90" y2="60" stroke="#444" stroke-width="1"/>
    <line x1="110" y1="30" x2="110" y2="60" stroke="#444" stroke-width="1"/>
    
    <!-- Door handles -->
    <rect x="95" y="40" width="6" height="2" fill="#333" rx="1" ry="1"/>
    <rect x="115" y="40" width="6" height="2" fill="#333" rx="1" ry="1"/>
    
    <!-- Headlights -->
    <rect x="155" y="35" width="8" height="8" fill="#FFFF88" rx="2" ry="2" stroke="#333" stroke-width="1"/>
    
    <!-- Taillights -->
    <rect x="37" y="35" width="6" height="8" fill="#FF3300" rx="2" ry="2" stroke="#333" stroke-width="1"/>
    
    <!-- Wheel wells -->
    <rect x="50" y="57" width="22" height="10" fill="#222222" rx="5" ry="5"/>
    <rect x="128" y="57" width="22" height="10" fill="#222222" rx="5" ry="5"/>
  </g>
</svg>